<?xml version="1.0" standalone="no"?>
<!DOCTYPE svg PUBLIC "-//W3C//DTD SVG 20010904//EN"
 "http://www.w3.org/TR/2001/REC-SVG-20010904/DTD/svg10.dtd">
<svg version="1.0" xmlns="http://www.w3.org/2000/svg"
 width="736.000000pt" height="736.000000pt" viewBox="0 0 736.000000 736.000000"
 preserveAspectRatio="xMidYMid meet">
<metadata>
Created by potrace 1.14, written by Peter Selinger 2001-2017
</metadata>
<g transform="translate(0.000000,736.000000) scale(0.100000,-0.100000)"
fill="#000000" stroke="none">
<path d="M2616 5607 c-10 -18 -32 -57 -49 -87 -25 -46 -72 -125 -117 -200 -5
-8 -42 -73 -83 -145 -41 -71 -116 -202 -167 -290 -51 -88 -103 -178 -114 -200
-12 -22 -24 -41 -28 -43 -5 -2 -8 -7 -8 -12 0 -4 -17 -37 -38 -71 -22 -35 -50
-84 -64 -109 -80 -144 -204 -355 -210 -358 -5 -2 -8 -8 -8 -12 0 -5 -28 -58
-63 -118 -35 -60 -67 -115 -70 -123 -4 -8 -16 -27 -26 -44 -11 -16 -30 -50
-42 -75 -13 -25 -25 -47 -29 -50 -6 -5 -193 -330 -253 -440 -17 -30 -34 -56
-39 -58 -4 -2 -8 -8 -8 -12 0 -5 -17 -37 -37 -72 -21 -35 -38 -65 -38 -68 -1
-8 -39 -65 -48 -71 -5 -3 -9 -10 -8 -15 0 -12 -131 -238 -141 -242 -4 -2 -8
-12 -8 -22 0 -9 -7 -23 -15 -30 -8 -7 -15 -16 -15 -20 0 -6 -140 -253 -157
-276 -4 -5 -17 -26 -27 -45 -21 -38 -112 -196 -126 -219 -22 -36 -107 -186
-113 -200 -4 -8 -23 -40 -41 -70 -19 -30 -33 -57 -31 -59 3 -2 6227 -4 6358
-2 l27 1 -24 38 c-18 29 -305 525 -429 742 -11 19 -28 49 -38 65 -10 17 -28
48 -40 70 -12 22 -41 73 -65 112 -24 40 -44 75 -44 78 0 3 -11 22 -24 43 -33
51 -141 236 -141 242 0 3 -8 16 -17 30 -14 23 -178 306 -225 390 -40 70 -86
150 -145 247 -21 34 -38 64 -38 67 0 2 -19 37 -43 78 -24 40 -55 93 -69 118
-14 25 -85 149 -158 275 -73 127 -144 250 -158 275 -26 46 -57 100 -79 135
-12 19 -35 59 -98 169 -15 28 -41 72 -56 98 -16 27 -29 52 -29 55 0 4 -6 14
-14 22 -7 9 -27 41 -43 71 -49 89 -75 134 -91 153 -8 9 -12 17 -8 17 4 0 -1
12 -12 28 -11 15 -49 80 -86 145 -37 64 -71 117 -75 117 -4 0 -14 -12 -22 -27
-7 -16 -40 -72 -71 -126 -32 -53 -58 -102 -58 -107 0 -6 -4 -10 -10 -10 -5 0
-10 -4 -10 -10 0 -13 -133 -244 -142 -248 -5 -2 -8 -8 -8 -13 0 -4 -24 -49
-52 -99 -29 -49 -59 -103 -67 -118 -8 -15 -17 -29 -20 -32 -3 -3 -15 -23 -26
-45 -11 -22 -22 -42 -26 -45 -5 -5 -36 -59 -85 -150 -11 -19 -22 -36 -26 -38
-5 -2 -8 -7 -8 -11 0 -7 -255 -454 -280 -491 -6 -8 -15 -25 -20 -38 -10 -24
-30 -22 -30 3 0 7 -3 15 -8 17 -9 4 -182 304 -182 317 0 5 -4 11 -8 13 -7 2
-127 208 -202 343 -12 22 -26 45 -30 50 -4 6 -21 35 -38 65 -17 30 -103 181
-192 335 -90 154 -174 300 -188 324 -26 47 -83 145 -86 148 -1 1 -10 -13 -20
-30z m-66 -1454 c0 -2 12 -22 26 -45 14 -23 36 -60 49 -82 12 -23 47 -84 77
-136 30 -52 64 -111 74 -130 10 -19 24 -40 31 -47 6 -7 15 -23 19 -36 3 -12
12 -29 19 -37 7 -8 24 -35 37 -60 14 -25 38 -67 53 -95 15 -27 34 -58 43 -67
8 -10 11 -18 7 -18 -4 0 -1 -8 7 -17 8 -10 39 -61 69 -113 30 -52 59 -104 66
-115 7 -11 15 -27 19 -35 4 -8 42 -73 84 -145 42 -71 79 -137 83 -145 4 -8 18
-33 32 -55 14 -22 35 -58 47 -80 12 -22 28 -49 35 -60 7 -11 15 -27 19 -35 4
-8 17 -31 29 -50 12 -19 36 -60 52 -90 17 -30 52 -90 77 -132 l46 -78 -43 0
c-332 -4 -2340 0 -2344 4 -3 3 2 16 10 30 9 14 25 40 36 58 10 18 35 62 56 98
21 36 51 90 68 120 16 30 36 62 43 71 8 8 14 18 14 22 0 3 14 30 31 59 31 52
50 84 87 151 25 43 165 283 191 327 11 19 29 51 39 70 10 19 43 76 72 125 29
50 63 108 75 130 13 22 46 80 74 128 28 49 51 92 51 97 0 5 4 10 8 12 7 3 36
51 105 178 17 30 34 57 39 58 4 2 8 8 8 12 0 7 123 226 167 299 15 23 15 22
64 -60 27 -45 49 -84 49 -86z m1820 142 c7 -8 9 -15 5 -15 -5 0 -1 -8 7 -17 9
-10 27 -38 40 -63 31 -55 49 -88 122 -212 31 -54 56 -102 56 -108 0 -5 5 -10
10 -10 6 0 10 -5 10 -10 0 -9 84 -156 130 -230 6 -8 19 -33 31 -55 12 -22 29
-48 38 -59 9 -10 14 -19 12 -20 -3 0 2 -12 11 -26 16 -26 154 -264 194 -335
12 -22 55 -96 94 -165 40 -69 81 -141 92 -160 11 -19 42 -72 69 -118 27 -45
49 -85 49 -88 0 -3 8 -18 19 -32 10 -15 29 -47 43 -72 34 -61 58 -103 103
-178 20 -35 35 -66 32 -69 -4 -3 -532 -6 -894 -3 -40 0 -63 4 -63 11 0 6 -20
45 -45 86 -25 40 -45 76 -45 78 0 3 -18 34 -40 70 -22 36 -40 70 -40 75 0 6
-4 10 -10 10 -5 0 -10 4 -10 9 0 5 -23 49 -51 98 -29 48 -64 109 -78 135 -14
25 -41 73 -60 105 -19 32 -42 72 -51 88 -9 17 -59 102 -110 190 -51 88 -106
185 -123 215 -16 30 -34 60 -39 67 -6 7 0 26 17 53 14 23 34 56 45 74 10 18
24 44 32 57 7 13 15 26 18 29 4 4 18 29 64 115 6 11 14 22 17 25 3 3 11 20 18
38 8 17 17 32 22 32 4 0 10 9 14 19 3 11 48 92 100 181 52 89 95 165 95 169 0
9 22 31 31 31 4 0 12 -7 19 -15z"/>
</g>
</svg>
