<svg viewBox="0 0 124 32" fill="none" xmlns="http://www.w3.org/2000/svg">
  <path
    fill-rule="evenodd"
    clip-rule="evenodd"
    d="M50.6577 12.4723H46.6527V22.1149H43.7178V12.4723H39.7129V9.88672H50.6577V12.4723ZM56.3746 14.054L56.1606 16.7917C56.1315 16.7808 56.1032 16.7699 56.0753 16.7592L56.0752 16.7592C55.8692 16.6799 55.6852 16.6092 55.3352 16.6092C54.2652 16.6092 53.4703 17.1871 53.4703 18.3126V22.1149H50.7188V14.1149H52.9811L53.0728 15.5749C53.348 14.632 54.3569 13.9628 55.6715 13.9628C55.8855 13.9628 56.13 13.9932 56.3746 14.054ZM65.8223 14.1142V22.1142H63.3766L63.2848 21.1712C62.704 21.81 61.9091 22.2662 60.8696 22.2662C58.6379 22.2662 57.0176 20.4716 57.0176 18.0989C57.0176 15.7263 58.699 13.9316 60.9614 13.9316C61.848 13.9316 62.5817 14.2358 63.1625 14.6617L63.2543 14.0837H65.8223V14.1142ZM63.193 18.13C63.1624 17.1567 62.551 16.457 61.5115 16.457C60.5027 16.457 59.8301 17.1567 59.8301 18.13C59.8301 19.073 60.5332 19.803 61.5115 19.803C62.551 19.803 63.193 19.073 63.193 18.13ZM76.4597 14.1152L76.4456 14.1457H73.586L71.8128 18.5867L69.9785 14.1457H66.9824L70.6816 22.1152H72.73L76.4456 14.1457H76.4597V14.1152ZM85.2954 18.8602H79.7313C80.037 19.499 80.7401 19.9857 81.749 19.9857C82.7956 19.9857 83.3708 19.5166 83.6757 19.268C83.7092 19.2406 83.7395 19.2159 83.7668 19.1948L84.8674 21.172C84.4394 21.5675 83.3999 22.2975 81.4433 22.2975C78.8753 22.2975 76.9492 20.4724 76.9492 18.1302C76.9492 15.788 78.7224 13.9629 81.1987 13.9629C83.7362 13.9629 85.3259 15.8184 85.3259 18.191C85.3259 18.4952 85.2954 18.8602 85.2954 18.8602ZM79.7012 17.2181H82.6972C82.5749 16.5793 82.0246 16.123 81.2909 16.123C80.5266 16.123 79.9457 16.4272 79.7012 17.2181ZM86.6719 9.88672H89.4234V22.1149H86.6719V9.88672ZM94.0093 19.073L96.6079 22.1149H100.124L96.4551 17.9171L99.818 14.1149H96.4245L94.0093 17.1567V9.88672H91.2578V22.1149H94.0093V19.073ZM114.277 17.7043V22.115H111.526V18.0998C111.526 17.096 110.945 16.4268 110.089 16.4268C109.172 16.4268 108.56 17.0656 108.56 18.0998V22.115H105.809V14.115H107.735L107.826 15.3925C108.315 14.5713 109.294 13.9629 110.761 13.9629C112.901 13.9629 114.277 15.423 114.277 17.7043ZM123.999 14.1758V21.5979C123.999 23.9705 122.379 25.7043 119.505 25.7043C117.702 25.7043 116.479 25.3089 115.562 24.6093L116.723 22.6929C117.426 23.0884 118.405 23.3621 119.322 23.3621C120.423 23.3621 121.248 22.7842 121.248 21.9629V21.4762C120.698 21.9629 119.995 22.2975 119.108 22.2975C116.876 22.2975 115.256 20.5028 115.256 18.1302C115.256 15.7576 116.937 13.9629 119.2 13.9629C120.27 13.9629 121.126 14.3887 121.737 14.9971L121.798 14.1758H123.999ZM121.4 18.13C121.369 17.1567 120.758 16.457 119.719 16.457C118.71 16.457 118.037 17.1567 118.037 18.13C118.037 19.073 118.74 19.803 119.719 19.803C120.758 19.803 121.4 19.073 121.4 18.13ZM101.193 14.1152H103.945V22.1152H101.193V14.1152ZM102.538 9.91697C101.559 9.91697 100.795 10.5862 100.795 11.5596C100.795 12.5329 101.559 13.2326 102.538 13.2326C103.516 13.2326 104.311 12.5634 104.311 11.5596C104.311 10.5862 103.516 9.88655 102.538 9.91697Z"
    fill="#28293F"
  ></path>
  <path
    fill-rule="evenodd"
    clip-rule="evenodd"
    d="M0 16C0 7.14829 7.21499 0 16.0809 0C24.9467 0 32.1617 7.14829 32.1617 16C32.1617 24.8517 24.9467 32 16.0809 32C7.18442 32 0 24.8517 0 16ZM20.6882 20.2793C20.6614 20.2857 20.6334 20.2891 20.6042 20.2891H12.5332L12.5334 20.2889H11.5553H11.5247H11.5243C11.4021 20.2889 11.2798 20.2281 11.2186 20.1368C11.1907 20.0952 11.1756 20.0472 11.1702 19.9958L8.65094 13.1102C8.5898 12.9581 8.65094 12.806 8.77323 12.7148C8.89552 12.6235 9.07895 12.6235 9.20124 12.7148L13.1485 15.5848L15.7127 10.0684C15.7738 9.94672 15.8961 9.85547 16.0184 9.85547C16.0275 9.85547 16.0368 9.85598 16.0462 9.85697C16.0573 9.85598 16.0685 9.85547 16.0799 9.85547V9.86246C16.1873 9.88599 16.2985 9.96654 16.3241 10.0684L18.9139 15.6397L22.9277 12.7149C23.05 12.6237 23.2334 12.6237 23.3557 12.7149C23.478 12.8062 23.5391 12.9583 23.478 13.1104L20.9405 20.0457C20.8982 20.151 20.8265 20.2272 20.7357 20.264C20.721 20.2702 20.705 20.2754 20.6882 20.2793ZM19.6567 22.1148H12.4723C12.2889 22.1148 12.1055 21.9627 12.1055 21.7498C12.1055 21.5369 12.2583 21.3848 12.4723 21.3848H19.6262C19.8096 21.3848 19.993 21.5369 19.993 21.7498C19.993 21.9627 19.8402 22.1148 19.6567 22.1148Z"
    fill="#0CAEA1"
  ></path>
</svg>
