<svg width="24" height="23" viewBox="0 0 24 23" fill="none" xmlns="http://www.w3.org/2000/svg">
  <path d="M12 22.5C8.9951 22.5 6.16983 21.3298 4.04507 19.2049C1.92018 17.0802 0.75 14.2549 0.75 11.25C0.75 8.2451 1.92018 5.41983 4.04507 3.29507C6.16983 1.17018 8.9951 0 12 0C15.0049 0 17.8302 1.17018 19.9549 3.29507C22.0798 5.41983 23.25 8.2451 23.25 11.25C23.25 14.2549 22.0798 17.0802 19.9549 19.2049C17.8302 21.3298 15.0049 22.5 12 22.5ZM12 1.75781C6.76611 1.75781 2.50781 6.01611 2.50781 11.25C2.50781 16.4839 6.76611 20.7422 12 20.7422C17.2339 20.7422 21.4922 16.4839 21.4922 11.25C21.4922 6.01611 17.2339 1.75781 12 1.75781ZM14.9622 16.5022L16.5085 15.6658C16.4497 15.5573 15.0357 13.0078 12 13.0078C8.96434 13.0078 7.55026 15.5573 7.49149 15.6658L9.03781 16.5022C9.04715 16.4848 10.0002 14.7656 12 14.7656C13.9712 14.7656 14.9252 16.4358 14.9649 16.507L14.9622 16.5022ZM8.13281 7.33887C7.35745 7.33887 6.72656 8.12741 6.72656 9.09668C6.72656 10.0659 7.35745 10.8545 8.13281 10.8545C8.90817 10.8545 9.53906 10.0659 9.53906 9.09668C9.53906 8.12741 8.90817 7.33887 8.13281 7.33887ZM15.8672 7.33887C15.0918 7.33887 14.4609 8.12741 14.4609 9.09668C14.4609 10.0659 15.0918 10.8545 15.8672 10.8545C16.6425 10.8545 17.2734 10.0659 17.2734 9.09668C17.2734 8.12741 16.6425 7.33887 15.8672 7.33887Z" fill="#2f4c4f"/>
</svg>
